<svg width="32" height="32" viewBox="0 0 32 32" fill="none" xmlns="http://www.w3.org/2000/svg">
<path d="M27.1512 20.6576C27.3434 20.7542 27.5356 20.7059 27.6798 20.5611C27.824 20.4163 27.872 20.2232 27.7759 20.0302L27.3953 19.1381C26.5825 17.2334 27.2338 15.0718 27.8666 13.0999C28.0594 12.4989 28.1604 11.8756 28.1604 11.2459C28.1604 8.25486 25.9721 5.67964 22.8714 4.61516C21.2295 4.05147 19.6842 3.08187 18.3386 1.98494C16.8341 0.758449 14.7958 0 12.5417 0C7.92824 0 4.13171 3.23379 4.13171 7.14329C4.13171 7.7782 4.23438 8.40667 4.43033 9.01221C5.06554 10.9751 5.71804 13.1258 4.91637 15.0269L4.51617 15.9759C4.42006 16.1689 4.46812 16.362 4.61229 16.5068C4.75646 16.6516 4.99675 16.6999 5.14092 16.6033L9.3381 14.3933C9.82115 14.139 10.3758 14.0939 10.9142 14.1845C11.6709 14.3119 12.3705 14.7185 12.857 15.312C14.535 17.3593 17.3636 18.5226 20.2755 18.3582C21.5294 18.2874 22.8183 18.3762 23.9296 18.9613L27.1512 20.6576ZM10.0598 13.0001C9.91233 12.9953 9.78391 13.1146 9.65301 13.1828L8.9856 13.5304C7.97015 14.0592 6.8522 13.022 7.3035 11.9698C7.39961 11.7768 7.35156 11.5355 7.15933 11.3907C5.86178 10.2323 5.09286 8.73606 5.09286 7.14329C5.09286 3.71644 8.40882 0.96531 12.5417 0.96531C16.6266 0.96531 19.9906 3.76471 19.9906 7.14329C19.9906 11.3033 15.1324 14.3264 10.3225 13.0683C10.2326 13.0448 10.1527 13.0032 10.0598 13.0001ZM20.969 17.3585C17.1452 17.8869 18.6396 13.3351 20.3226 9.86123C20.7278 9.02497 20.9518 8.1079 20.9518 7.14329C20.9518 6.1529 21.7018 5.1876 22.6345 5.52047C25.2878 6.46733 27.1512 8.68505 27.1512 11.2459C27.1512 12.8386 26.4303 14.3349 25.0847 15.4932C24.9633 15.6152 24.91 15.8057 24.925 15.9781C24.9305 16.0416 24.9532 16.1018 24.9782 16.1603C25.4169 17.183 24.3303 18.1911 23.3433 17.6771L22.3935 17.1825C22.1903 17.0805 21.9465 17.1672 21.7249 17.2188C21.4744 17.277 21.2221 17.3235 20.969 17.3585Z" fill="#1F4E79"/>
<path d="M8.55409 24.7602C8.52489 24.7602 8.517 24.7183 8.54395 24.7071C10.0088 24.0959 11.005 22.6821 11.005 20.9955C11.005 18.7753 9.22689 16.9895 7.01625 16.9895C4.80561 16.9895 3.02749 18.7753 3.02749 20.9955C3.02749 22.6459 4.02466 24.035 5.40131 24.6666C5.44664 24.6874 5.43217 24.7602 5.3823 24.7602C2.40275 24.7602 -0.00012207 27.1735 -0.00012207 30.166V31.4692C-0.00012207 31.7587 0.192107 31.9518 0.480451 31.9518H13.4079C13.6962 31.9518 13.8885 31.7587 13.8885 31.4692V30.166C13.9365 27.2218 11.4856 24.7602 8.55409 24.7602ZM3.98864 21.0438C3.98864 19.3545 5.33424 18.0031 7.01625 18.0031C8.69826 18.0031 10.0439 19.3545 10.0439 21.0438C10.0439 22.7331 8.69826 24.0845 7.01625 24.0845C5.33424 24.0845 3.98864 22.6848 3.98864 21.0438ZM12.9754 30.9865H1.78154C1.32838 30.9865 0.961025 30.6191 0.961025 30.166C0.961025 27.7044 2.93138 25.7256 5.3823 25.7256H8.50603C10.957 25.7256 12.9273 27.7044 12.9273 30.166V30.9384C12.9273 30.965 12.9488 30.9865 12.9754 30.9865Z" fill="#1F4E79"/>
<path d="M31.0625 27.94C30.4684 27.2182 29.8413 24.9711 29.8413 24.0362C29.8413 22.3952 28.4957 21.0438 26.8617 21.0438C25.2278 21.0438 23.8822 22.3952 23.8822 24.0362C23.8822 24.9598 23.2195 27.1639 22.6185 27.8652C22.0589 28.5182 21.7196 29.3732 21.7196 30.3107V31.5174C21.7196 31.807 21.9118 32 22.2002 32H31.4272C31.7155 32 31.9078 31.807 31.9078 31.5174V30.3107C31.9078 29.401 31.5884 28.5788 31.0625 27.94ZM26.8617 22.0091C27.9671 22.0091 28.8801 22.9261 28.8801 24.0362C28.8801 25.1463 27.9671 26.0634 26.8617 26.0634C25.7564 26.0634 24.8433 25.1463 24.8433 24.0362C24.7953 22.9261 25.7084 22.0091 26.8617 22.0091ZM30.9466 30.2625C30.9466 30.6623 30.6225 30.9865 30.2226 30.9865H23.4047C23.0049 30.9865 22.6808 30.6623 22.6808 30.2625C22.6808 28.7662 23.8822 27.5113 25.42 27.5113H28.2073C29.6971 27.5113 30.9466 28.718 30.9466 30.2625Z" fill="#1F4E79"/>
<path d="M8.02556 5.21252C7.06441 5.21252 6.24744 6.03304 6.24744 6.99835C6.24744 7.96366 7.06441 8.78417 8.02556 8.78417C8.98671 8.78417 9.80368 7.96366 9.80368 6.99835C9.80368 6.03304 8.98671 5.21252 8.02556 5.21252ZM8.02556 7.81886C7.59304 7.81886 7.20858 7.43274 7.20858 6.99835C7.20858 6.56396 7.59304 6.17783 8.02556 6.17783C8.45807 6.17783 8.84253 6.56396 8.84253 6.99835C8.84253 7.481 8.45807 7.81886 8.02556 7.81886Z" fill="#1F4E79"/>
<path d="M14.3227 6.99835C14.3227 6.03304 13.5057 5.21252 12.5446 5.21252C11.5835 5.21252 10.7665 6.03304 10.7665 6.99835C10.7665 7.96366 11.5835 8.78417 12.5446 8.78417C13.5057 8.78417 14.3227 8.01192 14.3227 6.99835ZM12.5446 7.81886C12.1121 7.81886 11.7276 7.43274 11.7276 6.99835C11.7276 6.56396 12.1121 6.17783 12.5446 6.17783C12.9771 6.17783 13.3616 6.56396 13.3616 6.99835C13.3616 7.481 12.9771 7.81886 12.5446 7.81886Z" fill="#1F4E79"/>
<path d="M17.1047 8.78417C18.0658 8.78417 18.8828 7.96366 18.8828 6.99835C18.8828 6.03304 18.0658 5.21252 17.1047 5.21252C16.1435 5.21252 15.3265 6.03304 15.3265 6.99835C15.3265 8.01192 16.1435 8.78417 17.1047 8.78417ZM17.1047 6.17783C17.5372 6.17783 17.9216 6.56396 17.9216 6.99835C17.9216 7.43274 17.5372 7.81886 17.1047 7.81886C16.6721 7.81886 16.2877 7.43274 16.2877 6.99835C16.2877 6.56396 16.6721 6.17783 17.1047 6.17783Z" fill="#1F4E79"/>
</svg>
