<svg width="22" height="22" viewBox="0 0 22 22" fill="none" xmlns="http://www.w3.org/2000/svg">
    <path d="M19.841 7.45481L14.1736 6.63115L11.6401 1.49499C11.5709 1.35436 11.4571 1.24052 11.3165 1.17133C10.9638 0.997218 10.5352 1.14231 10.3589 1.49499L7.82541 6.63115L2.158 7.45481C2.00175 7.47713 1.85889 7.55079 1.74952 7.6624C1.61729 7.7983 1.54443 7.98115 1.54694 8.17075C1.54945 8.36035 1.62713 8.5412 1.76291 8.67356L5.86336 12.6713L4.89461 18.3164C4.87189 18.4477 4.88642 18.5828 4.93655 18.7063C4.98669 18.8297 5.07041 18.9367 5.17824 19.015C5.28607 19.0933 5.41369 19.1399 5.54662 19.1494C5.67955 19.1588 5.81247 19.1309 5.93032 19.0686L10.9995 16.4035L16.0687 19.0686C16.2071 19.1423 16.3678 19.1669 16.5218 19.1401C16.9102 19.0731 17.1714 18.7048 17.1044 18.3164L16.1357 12.6713L20.2361 8.67356C20.3477 8.56418 20.4214 8.42133 20.4437 8.26508C20.504 7.87445 20.2317 7.51284 19.841 7.45481V7.45481ZM14.4102 12.1088L15.216 16.803L10.9995 14.5887L6.783 16.8053L7.58881 12.1111L4.17809 8.78517L8.89238 8.0999L10.9995 3.82981L13.1067 8.0999L17.8209 8.78517L14.4102 12.1088Z" fill="#1890FF"/>
</svg>
